HIERARCHY
ROOT root
{
	OFFSET	0	13.1	24.9
	CHANNELS 6  Xposition Yposition Zposition Xrotation Yrotation Zrotation
	JOINT spine_1
	{
		OFFSET	0	9.99999	0
		CHANNELS 3  Xrotation Yrotation Zrotation
		JOINT spine_2
		{
			OFFSET	0	112	-10
			CHANNELS 3  Xrotation Yrotation Zrotation
			JOINT spine_3
			{
				OFFSET	0	206.5	19.3
				CHANNELS 3  Xrotation Yrotation Zrotation
				JOINT spine_4
				{
					OFFSET	0	110.4	14.6
					CHANNELS 3  Xrotation Yrotation Zrotation
					JOINT neck_1
					{
						OFFSET	0	71.8	-50.3
						CHANNELS 3  Xrotation Yrotation Zrotation
						JOINT neck_2
						{
							OFFSET	0	86.2	-25.8
							CHANNELS 3  Xrotation Yrotation Zrotation
							JOINT head_ee
							{
								OFFSET	0	179.8	-8.7
								CHANNELS 3  Xrotation Yrotation Zrotation
								End Site
								{
									OFFSET	1	0	0
								}
							}
						}
					}
					JOINT left_clavicle
					{
						OFFSET	-43.2	22.4	-70.8
						CHANNELS 3  Xrotation Yrotation Zrotation
						JOINT left_shoulder
						{
							OFFSET	-93.9	-5.79999	48.7
							CHANNELS 3  Xrotation Yrotation Zrotation
							JOINT left_elbow
							{
								OFFSET	-291.4	-30.8	15.2
								CHANNELS 3  Xrotation Yrotation Zrotation
								JOINT left_lowarm_twist
								{
									OFFSET	-110.7	-3.89999	13.6
									CHANNELS 3  Xrotation Yrotation Zrotation
									JOINT left_hand
									{
										OFFSET	-110.7	-3.89999	13.6
										CHANNELS 3  Xrotation Yrotation Zrotation
										JOINT left_ee
										{
											OFFSET	-80.8	-5.10001	12.1
											CHANNELS 3  Xrotation Yrotation Zrotation
											End Site
											{
												OFFSET	1	0	0
											}
										}
									}
								}
							}
						}
					}
					JOINT right_clavicle
					{
						OFFSET	43.2	22.4	-70.8
						CHANNELS 3  Xrotation Yrotation Zrotation
						JOINT right_shoulder
						{
							OFFSET	93.9	-5.79999	48.7
							CHANNELS 3  Xrotation Yrotation Zrotation
							JOINT right_elbow
							{
								OFFSET	291.4	-30.8	15.2
								CHANNELS 3  Xrotation Yrotation Zrotation
								JOINT right_lowarm_twist
								{
									OFFSET	110.7	-3.89999	13.6
									CHANNELS 3  Xrotation Yrotation Zrotation
									JOINT right_hand
									{
										OFFSET	110.7	-3.89999	13.6
										CHANNELS 3  Xrotation Yrotation Zrotation
										JOINT right_ee
										{
											OFFSET	80.8	-5.10001	12.1
											CHANNELS 3  Xrotation Yrotation Zrotation
											End Site
											{
												OFFSET	1	0	0
											}
										}
									}
								}
							}
						}
					}
				}
			}
		}
	}
	JOINT left_hip
	{
		OFFSET	-82.8	-127.5	0.300001
		CHANNELS 3  Xrotation Yrotation Zrotation
		JOINT left_knee
		{
			OFFSET	-28.2	-396.7	2.2
			CHANNELS 3  Xrotation Yrotation Zrotation
			JOINT left_ankle
			{
				OFFSET	-11.7	-411.3	35.4
				CHANNELS 3  Xrotation Yrotation Zrotation
				JOINT left_toes
				{
					OFFSET	0	-60	-88.6
					CHANNELS 3  Xrotation Yrotation Zrotation
					JOINT left_foot_ee
					{
						OFFSET	-22.5	-16.5	-42.2
						CHANNELS 3  Xrotation Yrotation Zrotation
						End Site
						{
							OFFSET	1	0	0
						}
					}
				}
			}
		}
	}
	JOINT right_hip
	{
		OFFSET	82.8	-127.5	0.300001
		CHANNELS 3  Xrotation Yrotation Zrotation
		JOINT right_knee
		{
			OFFSET	28.2	-396.7	2.2
			CHANNELS 3  Xrotation Yrotation Zrotation
			JOINT right_ankle
			{
				OFFSET	11.7	-411.3	35.4
				CHANNELS 3  Xrotation Yrotation Zrotation
				JOINT right_toes
				{
					OFFSET	0	-60	-88.6
					CHANNELS 3  Xrotation Yrotation Zrotation
					JOINT right_foot_ee
					{
						OFFSET	22.5	-16.5	-42.2
						CHANNELS 3  Xrotation Yrotation Zrotation
						End Site
						{
							OFFSET	1	0	0
						}
					}
				}
			}
		}
	}
}
MOTION
Frames: 15
Frame Time: 0.02
1726.63 748.597 -589.506 42.8655 -74.6752 50.4286 -3.71055 -0.774317 -4.44113 -3.69971 -0.490438 -4.48129 -3.64438 0.747469 -4.44572 -3.67194 0.036712 -4.50785 -0.166298 2.39966 7.12771 -0.0180082 -1.5511 7.91759 -0.0 0.0 -0.0 7.09626 -10.4535 13.5727 -6.69397 3.00563 74.611 0.231806 -6.55073 0.0132659 -36.0564 -2.54185 3.76328 -0.0343293 23.8099 9.2937 -0.0 0.0 -0.0 -0.487481 7.90928 1.9392 20.9658 4.22336 -65.5359 3.16899 57.4898 -1.73851 20.8821 -0.257172 2.64036 2.74509 5.90628 -16.2269 0.0 0.0 0.0 4.81023 -13.0182 -9.66026 -32.2626 -0.049225 4.8861 16.393 7.94889 -2.27404 -8.66427 0.0 0.0 -0.0 0.0 -0.0 -3.5558 7.1383 -14.2313 -5.57597 -0.189087 -0.834519 17.9744 -2.23655 2.48617 -19.1932 0.0 0.0 0.0 0.0 0.0 
1735.16 746.757 -589.83 39.3107 -74.8379 46.678 -3.57794 -0.767696 -4.31647 -3.56771 -0.491739 -4.35647 -3.51458 0.702336 -4.32756 -3.54071 0.0107476 -4.38407 0.817867 2.54212 7.29699 0.973327 -1.5555 8.1755 -0.0 0.0 -0.0 6.77148 -10.5653 12.8793 -6.61058 4.12677 74.8985 0.228587 -6.46054 0.0129012 -36.0204 -2.53822 3.76044 0.124497 26.3354 11.1117 -0.0 0.0 -0.0 -0.729295 8.7326 2.54054 20.4651 5.00519 -65.1884 3.44429 59.6112 -1.97341 22.0173 -0.243409 2.78471 2.86472 8.77323 -15.8096 0.0 0.0 0.0 4.99076 -13.5955 -8.84246 -26.3604 0.166177 4.00631 17.2669 10.9169 -2.39094 -8.69664 0.0 0.0 -0.0 0.0 -0.0 -3.74391 6.4809 -14.138 -4.16129 -0.148826 -0.621151 18.5836 -2.52935 2.56224 -19.151 0.0 0.0 0.0 0.0 0.0 
1741.42 743.606 -593.873 35.1019 -74.4264 42.43 -3.48832 -0.776425 -4.31241 -3.47812 -0.500709 -4.35297 -3.42458 0.685918 -4.3277 -3.45071 -0.00548664 -4.38161 1.77882 2.25755 7.54446 1.95292 -2.3787 8.48895 -0.0 0.0 -0.0 6.90856 -10.4723 13.1739 -6.56726 5.32724 74.7507 0.221835 -6.27124 0.0121524 -35.8858 -2.52462 3.74979 0.0245023 28.9467 11.4602 -0.0 0.0 -0.0 -0.974798 8.98318 3.08032 19.5559 4.40165 -64.1939 3.7697 61.8142 -2.25727 22.2409 -0.24036 2.81312 3.16215 10.8399 -16.9592 0.0 0.0 0.0 6.92095 -10.8113 -9.26124 -25.7109 0.184311 3.90828 18.4031 8.30138 -2.53123 -8.40586 0.0 0.0 -0.0 0.0 -0.0 -3.58299 7.75678 -13.9004 -3.13259 -0.116244 -0.46664 19.8551 -2.36694 2.72209 -18.8391 0.0 0.0 0.0 0.0 0.0 
1748.73 742.693 -594.955 30.9316 -74.0427 38.3864 -3.44465 -0.837324 -4.35765 -3.43427 -0.558615 -4.40198 -3.37544 0.639388 -4.391 -3.40234 -0.0614038 -4.43679 1.96859 2.20891 7.35038 2.13408 -2.3218 8.28454 -0.0 0.0 -0.0 6.63417 -10.4322 12.5949 -6.60858 4.58219 75.3789 0.243904 -6.88942 0.0146817 -36.0524 -2.54146 3.76297 0.0487649 29.0313 11.6227 -0.0 0.0 -0.0 -1.23037 8.29492 3.51796 19.3728 4.71559 -64.48 3.9357 62.8283 -2.40429 22.5844 -0.235463 2.85671 3.21658 11.8191 -16.8855 0.0 0.0 0.0 6.79297 -10.2334 -9.34623 -22.9037 0.249865 3.48252 18.8362 7.22623 -2.5854 -7.84058 0.0 0.0 -0.0 0.0 -0.0 -3.52855 7.31053 -13.8235 -2.41108 -0.0917377 -0.358621 20.9128 -2.04671 2.85401 -18.4667 0.0 0.0 0.0 0.0 0.0 
1752.36 744.552 -597.203 27.9941 -74.1667 35.5747 -3.37224 -0.930699 -4.49132 -3.36125 -0.643322 -4.54129 -3.29333 0.588346 -4.54873 -3.32217 -0.136642 -4.58451 2.24546 1.79891 7.0891 2.40639 -2.84869 7.984 -0.0 0.0 -0.0 6.96701 -10.5145 13.2959 -5.98656 4.79471 74.896 0.235195 -6.64566 0.0136553 -35.3306 -2.46881 3.70553 0.12807 29.2456 12.1314 -0.0 0.0 -0.0 -1.34872 5.93664 3.44029 18.1969 6.09713 -64.1796 4.38781 65.2737 -2.81091 21.7149 -0.247355 2.74629 3.44234 13.4918 -17.6751 0.0 0.0 0.0 7.29012 -9.39099 -9.09705 -21.3367 0.277358 3.24364 20.3042 7.19125 -2.76834 -7.19343 0.0 0.0 -0.0 0.0 -0.0 -3.46661 7.80728 -13.9135 -0.882225 -0.0353196 -0.13078 21.6022 -2.15385 2.9377 -18.1777 0.0 0.0 0.0 0.0 0.0 
1758.85 746.301 -599.652 23.3025 -73.9662 31.1407 -3.22465 -0.840322 -4.62959 -3.21289 -0.544356 -4.67355 -3.15146 0.70781 -4.65165 -3.18164 -0.0348693 -4.70495 2.46255 1.01431 6.61026 2.61714 -3.83445 7.41014 -0.0 0.0 -0.0 7.08114 -10.4843 13.5393 -5.50145 4.81798 75.298 0.249177 -7.03686 0.0153207 -35.0838 -2.44415 3.68569 0.259813 28.7425 12.6906 -0.0 0.0 -0.0 -1.4517 3.97112 3.37387 17.4547 6.29191 -64.4813 4.59843 66.2766 -3.00299 21.117 -0.254558 2.67026 3.36973 13.9124 -16.9619 0.0 0.0 0.0 7.30641 -8.73328 -9.00901 -18.5574 0.310016 2.81849 19.721 9.09081 -2.6976 -6.88569 0.0 0.0 -0.0 0.0 -0.0 -3.54964 6.78703 -14.1309 0.176564 0.00731096 0.0261089 22.1193 -4.10926 2.99355 -17.9967 0.0 0.0 0.0 0.0 0.0 
1767.33 742.38 -605.487 21.2965 -73.7216 29.397 -3.2351 -0.933367 -4.66917 -3.2232 -0.634704 -4.71895 -3.15322 0.632521 -4.71924 -3.18427 -0.119858 -4.75984 3.59233 -0.0296685 6.68508 3.78659 -5.80325 7.52256 -0.0 0.0 -0.0 7.13272 -10.6572 13.6415 -5.85509 4.04191 75.6935 0.29165 -8.22111 0.0209598 -34.9535 -2.43115 3.67517 0.573903 28.0959 14.2386 -0.0 0.0 -0.0 -1.52228 4.89118 3.64598 16.9441 5.11333 -64.3254 4.59818 66.2755 -3.00276 20.7222 -0.25888 2.62002 3.23687 14.1989 -15.8961 0.0 0.0 0.0 7.28641 -7.28742 -9.04967 -17.7663 0.315539 2.69723 19.8487 9.61671 -2.71446 -6.68814 0.0 0.0 -0.0 0.0 -0.0 -3.68114 7.32009 -14.087 0.562801 0.0235841 0.083145 21.9887 -5.81264 2.97474 -17.9622 0.0 0.0 0.0 0.0 0.0 
1772.96 742.456 -607.949 20.8641 -74.927 29.1431 -3.10248 -0.877634 -4.70863 -3.09034 -0.576581 -4.75479 -3.02519 0.687648 -4.74004 -3.05652 -0.0686909 -4.78905 3.98456 -0.922644 6.35608 4.1945 -7.0865 7.13674 -0.0 0.0 -0.0 7.13272 -10.6764 13.6407 -5.72489 3.49804 75.8608 0.318418 -8.96388 0.0249591 -34.8874 -2.42457 3.66982 0.699314 27.7598 14.8441 -0.0 0.0 -0.0 -1.37739 5.73858 3.47119 16.5758 3.95403 -64.5702 4.48455 65.7441 -2.89895 20.4359 -0.261797 2.58357 3.1432 14.5299 -15.0863 0.0 0.0 0.0 6.9295 -6.63119 -9.1539 -16.3811 0.321173 2.48479 19.1861 10.5208 -2.63373 -6.22702 0.0 0.0 -0.0 0.0 -0.0 -3.6026 7.64275 -14.2135 0.880676 0.0372655 0.130005 21.9032 -6.75602 2.96384 -17.5402 0.0 0.0 0.0 0.0 0.0 
1780.53 742.507 -610.961 20.448 -75.591 28.9354 -3.0678 -0.874664 -4.83984 -3.05495 -0.565298 -4.88554 -2.98872 0.729792 -4.86374 -3.02171 -0.0465381 -4.91783 4.27316 -1.7524 5.72943 4.48131 -7.98664 6.40784 -0.0 0.0 -0.0 7.41103 -10.6936 14.2321 -5.3804 2.89952 75.774 0.351402 -9.87498 0.0303575 -34.8833 -2.42417 3.66949 0.82485 28.5401 15.7924 -0.0 0.0 -0.0 -1.6403 6.04458 4.0488 15.2699 4.42027 -64.8522 4.10994 63.8221 -2.55998 20.3103 -0.26302 2.56757 2.97224 14.2235 -14.0497 0.0 0.0 0.0 6.23944 -5.89618 -9.29552 -14.9311 0.321568 2.26232 19.8967 11.2095 -2.72476 -5.81208 0.0 0.0 -0.0 0.0 -0.0 -3.55102 8.17106 -14.1517 0.875597 0.0370445 0.129257 21.2888 -8.35519 2.88998 -18.2016 0.0 0.0 0.0 0.0 0.0 
1787.61 744.599 -611.525 17.8546 -76.7957 26.4476 -2.92081 -0.846892 -4.91618 -2.90753 -0.532741 -4.95996 -2.84351 0.768311 -4.92904 -2.8774 -0.0187742 -4.98838 3.828 -2.4198 6.55238 4.11482 -9.83282 7.2628 -0.0 0.0 -0.0 7.51245 -10.7438 14.4463 -5.15165 2.87069 75.7782 0.412153 -11.5396 0.0416458 -34.7859 -2.41448 3.66159 0.980141 27.6061 16.4037 -0.0 0.0 -0.0 -1.15844 5.48762 2.99291 14.5463 3.50342 -65.6367 3.98988 63.1447 -2.45255 19.3962 -0.27086 2.45108 2.93498 14.2482 -13.7808 0.0 0.0 0.0 6.03215 -5.47958 -9.72088 -12.645 0.310757 1.91175 18.8342 10.835 -2.59028 -6.37009 0.0 0.0 -0.0 0.0 -0.0 -3.12807 8.21586 -14.107 1.54028 0.0664852 0.227 22.0037 -9.21675 2.97832 -17.6038 0.0 0.0 0.0 0.0 0.0 
1794.66 745.189 -612.505 15.446 -76.185 24.07 -2.83523 -0.805105 -4.87528 -2.82214 -0.493631 -4.91649 -2.76262 0.788047 -4.87806 -2.79581 0.00873648 -4.94114 4.31546 -2.54816 7.41849 4.68283 -10.8199 8.30886 -0.0 0.0 -0.0 7.31762 -10.8786 14.0256 -4.35453 2.34624 75.8181 0.509039 -14.153 0.0631926 -34.9279 -2.4286 3.6731 1.06678 27.7484 16.9437 -0.0 0.0 -0.0 -1.084 5.38729 2.82874 12.2877 2.53965 -65.6387 3.52931 60.2164 -2.04698 18.9733 -0.273858 2.39714 2.8595 13.6795 -13.5278 0.0 0.0 0.0 4.83497 -4.90535 -9.44599 -10.2422 0.28433 1.54404 19.3634 11.3537 -2.65851 -6.51247 0.0 0.0 -0.0 0.0 -0.0 -3.37056 7.86853 -14.2263 1.46505 0.0630964 0.215955 20.9411 -10.5744 2.85209 -17.8794 0.0 0.0 0.0 0.0 0.0 
1800.47 744.858 -614.823 13.3831 -77.0799 22.2748 -2.72405 -0.825859 -4.96294 -2.7105 -0.508786 -5.00529 -2.64865 0.786367 -4.96933 -2.6831 -0.00728229 -5.03101 3.99795 -3.02044 7.32475 4.37888 -11.5401 8.13642 -0.0 0.0 -0.0 7.28103 -10.9746 13.9436 -3.83362 2.08815 76.1802 0.571207 -15.7995 0.0792597 -34.988 -2.43458 3.67795 1.14172 27.647 17.3477 -0.0 0.0 -0.0 -1.0859 5.22571 2.81083 10.9382 2.25418 -66.3701 3.2735 58.3256 -1.82705 18.8565 -0.274615 2.38224 2.78922 13.5816 -13.0889 0.0 0.0 0.0 4.20018 -4.65258 -9.8067 -7.9329 0.244421 1.19196 19.007 11.4085 -2.61386 -6.68945 0.0 0.0 -0.0 0.0 -0.0 -2.85091 7.79639 -14.2984 1.32772 0.0569467 0.195779 21.5131 -11.131 2.92412 -17.7427 0.0 0.0 0.0 0.0 0.0 
1812.1 743.545 -617.711 9.78165 -77.0299 18.9847 -2.25781 -0.820415 -5.04647 -2.24378 -0.498059 -5.0883 -2.18341 0.776946 -5.05333 -2.21902 -0.0297994 -5.11246 5.10872 -3.37411 6.95742 5.50392 -11.8573 7.84995 -0.0 0.0 -0.0 7.26045 -8.88479 13.9794 -3.33001 1.7873 76.2779 0.627072 -17.2566 0.0951538 -35.1277 -2.44853 3.68923 0.930919 26.4373 15.7719 -0.0 0.0 -0.0 -1.23985 4.28268 2.99242 9.21685 1.82244 -67.1589 2.82846 54.474 -1.45616 18.4282 -0.277135 2.32759 2.6661 12.3404 -12.8141 0.0 0.0 0.0 3.54766 -4.39764 -10.0663 -6.14839 0.203878 0.92112 20.2095 11.2717 -2.76392 -6.53109 0.0 0.0 -0.0 0.0 -0.0 -2.39723 8.03928 -14.5728 0.392464 0.0163597 0.0580045 21.2932 -11.7532 2.89964 -17.7533 0.0 0.0 0.0 0.0 0.0 
1818.21 745.887 -616.266 8.54005 -77.9031 18.0578 -2.00803 -0.781023 -5.09088 -1.99374 -0.455931 -5.13012 -1.93762 0.806446 -5.08693 -1.97371 -0.00595186 -5.15029 4.60364 -3.50692 7.33322 5.02858 -12.4007 8.20977 -0.0 0.0 -0.0 6.96531 -9.52531 13.3333 -2.89585 1.71929 76.5895 0.72085 -19.651 0.124845 -35.0227 -2.43805 3.68076 1.03865 26.6085 16.4497 -0.0 0.0 -0.0 -1.40667 3.30016 3.18902 8.05706 1.74224 -69.2159 2.5753 51.8997 -1.25343 18.3198 -0.277707 2.31376 2.68266 12.4761 -12.866 0.0 0.0 0.0 2.90679 -4.25162 -10.6562 -4.92044 0.171087 0.735529 19.2396 11.3152 -2.64283 -6.98453 0.0 0.0 -0.0 0.0 -0.0 -2.22679 7.88046 -14.7713 -0.131439 -0.00539003 -0.0194503 21.1827 -12.055 2.88735 -17.8453 0.0 0.0 0.0 0.0 0.0 
1823.35 742.971 -616.059 6.39287 -78.3161 16.1674 -1.82318 -0.815814 -5.0108 -1.80936 -0.495728 -5.05241 -1.75135 0.732342 -5.02364 -1.78654 -0.0691785 -5.07614 4.11235 -3.51399 7.85222 4.57185 -12.8483 8.73582 -0.0 0.0 -0.0 6.89061 -10.1622 13.1493 -1.6921 1.36987 76.3514 0.801602 -21.6574 0.153333 -35.0773 -2.44349 3.68516 0.930502 26.3653 15.7477 -0.0 0.0 -0.0 -1.46457 2.89818 3.24721 6.88024 1.76699 -70.1958 2.39741 49.8942 -1.11537 17.9252 -0.279571 2.26339 2.63883 11.7443 -12.8982 0.0 0.0 0.0 2.71221 -4.30536 -10.9252 -3.93733 0.141969 0.587464 19.3481 11.2918 -2.65638 -6.92798 0.0 0.0 -0.0 0.0 -0.0 -2.00236 7.95899 -15.1268 0.089383 0.00369092 0.01322 21.5257 -11.6903 2.92787 -17.9869 0.0 0.0 0.0 0.0 0.0 
